<?xml version="1.0" encoding="UTF-8" standalone="no"?>
<!-- Created with Inkscape (http://www.inkscape.org/) -->

<svg
   width="90.824615mm"
   height="29.764023mm"
   viewBox="0 0 90.824615 29.764023"
   version="1.1"
   id="svg5"
   xmlns="http://www.w3.org/2000/svg"
   xmlns:svg="http://www.w3.org/2000/svg">
  <defs
     id="defs2" />
  <g
     id="layer1"
     transform="translate(-32.427037,-32.461364)">
    <path
       id="path234"
       style="fill:#3b3b3b;fill-opacity:1;stroke-width:0.232758"
       d="m 47.292796,32.461363 c -8.210139,-1.6e-5 -14.86576,6.65562 -14.86576,14.865759 0,8.210139 6.655621,14.865775 14.86576,14.865759 8.210138,1.5e-5 14.865774,-6.655621 14.865759,-14.865759 1.5e-5,-8.210138 -6.655621,-14.865774 -14.865759,-14.865759 z m 3.96875,7.662581 c 0.4064,0 0.711113,0.304904 0.863513,0.635104 0.1016,0.177799 0.152446,0.380743 0.152446,0.583943 0,0.3048 -0.127137,0.584428 -0.457337,0.762228 l -8.864575,5.181596 8.864575,5.232238 c 0.3048,0.2032 0.432015,0.482749 0.432015,0.787549 0,0.1778 -0.05092,0.380823 -0.127124,0.558622 -0.1778,0.3556 -0.482513,0.635104 -0.863513,0.635104 -0.1524,0 -0.330258,-0.05085 -0.482658,-0.152446 L 41.456976,48.70895 c -0.634999,-0.3556 -0.939994,-0.711015 -0.939994,-1.396814 0,-0.711199 0.304917,-1.066896 0.965316,-1.473295 L 50.80421,40.27639 c 0.152399,-0.1016 0.330336,-0.152446 0.457336,-0.152446 z" />
    <path
       id="path234-1"
       style="fill:#3b3b3b;fill-opacity:1;stroke-width:0.232758"
       d="m 108.38588,32.493865 a 14.865731,14.865731 0 0 0 -14.865236,14.865759 14.865731,14.865731 0 0 0 14.865236,14.86576 14.865731,14.865731 0 0 0 14.86577,-14.86576 14.865731,14.865731 0 0 0 -14.86577,-14.865759 z m 4.58009,7.872905 c 0.254,0 0.48299,0.07653 0.71159,0.228926 0.3048,0.2032 0.5333,0.558478 0.5333,0.939478 0,0.203199 -0.076,0.406582 -0.22841,0.609782 l -3.88659,5.206917 4.16564,5.613611 c 0.1524,0.2032 0.22893,0.431825 0.22893,0.660425 0,0.355599 -0.17786,0.685634 -0.48266,0.888834 -0.2286,0.1524 -0.48291,0.254248 -0.73691,0.254248 -0.3048,0 -0.60967,-0.127215 -0.81287,-0.432015 l -3.78427,-5.359363 -3.8101,5.359363 c -0.2286,0.3048 -0.53347,0.432015 -0.81287,0.432015 -0.2794,0 -0.55895,-0.101848 -0.78755,-0.254248 -0.254,-0.2286 -0.45682,-0.533313 -0.45682,-0.863513 0,-0.2032 0.076,-0.406582 0.22841,-0.609782 l 4.2416,-5.689575 -4.03851,-5.206917 c -0.1524,-0.2032 -0.22841,-0.406583 -0.22841,-0.609782 0,-0.3556 0.2031,-0.710957 0.5333,-0.914156 0.2286,-0.1524 0.48247,-0.22841 0.71107,-0.22841 0.3048,0 0.60959,0.126698 0.83819,0.431498 l 3.58169,4.927865 3.45406,-4.953186 c 0.22861,-0.3048 0.53339,-0.432015 0.83819,-0.432015 z" />
    <path
       id="path234-11"
       style="fill:#3b3b3b;fill-opacity:1;stroke-width:0.232758"
       d="m 77.789459,32.484347 c 8.210139,-1.6e-5 14.86576,6.65562 14.86576,14.865759 0,8.210139 -6.655621,14.865775 -14.86576,14.865759 -8.210138,1.5e-5 -14.865774,-6.655621 -14.865759,-14.865759 -1.5e-5,-8.210138 6.655621,-14.865774 14.865759,-14.865759 z m -3.96875,7.662581 c -0.4064,0 -0.711113,0.304904 -0.863513,0.635104 -0.1016,0.177799 -0.152446,0.380743 -0.152446,0.583943 0,0.3048 0.127137,0.584428 0.457337,0.762228 l 8.864575,5.181596 -8.864575,5.232238 c -0.3048,0.2032 -0.432015,0.482749 -0.432015,0.787549 0,0.1778 0.05092,0.380823 0.127124,0.558622 0.1778,0.3556 0.482513,0.635104 0.863513,0.635104 0.1524,0 0.330258,-0.05085 0.482658,-0.152446 l 9.321912,-5.638932 c 0.634999,-0.3556 0.939994,-0.711015 0.939994,-1.396814 0,-0.711199 -0.304917,-1.066896 -0.965316,-1.473295 l -9.321912,-5.562451 c -0.152399,-0.1016 -0.330336,-0.152446 -0.457336,-0.152446 z" />
  </g>
</svg>
